<svg width="128" height="70" viewBox="0 0 128 70" fill="none" xmlns="http://www.w3.org/2000/svg">
<path d="M34.1833 29.2306C34.9084 27.5203 35.9404 26.2075 37.0654 25.6159C38.2461 24.9872 39.4269 25.5234 39.8917 25.773C40.0498 25.8562 40.0312 25.9487 39.8824 26.0504C37.242 27.8901 35.9683 30.719 35.1874 33.2336C35.0479 31.7821 34.6853 30.4139 34.1833 29.2306Z" fill="white"/>
<path d="M35.2526 34.2043C37.4467 30.4324 41.147 28.112 43.3597 28.4263C44.494 28.5835 45.1076 29.5357 45.34 29.9517C45.4237 30.1089 45.3679 30.1828 45.1913 30.1921C44.3731 30.2291 43.5736 30.4232 42.7833 30.7283L41.491 29.8408L42.0395 31.0426C41.3887 31.3477 40.7658 31.7267 40.1708 32.1335L38.739 31.4309L39.5293 32.5957C38.1626 33.6311 36.9818 34.796 36.1172 35.7205C35.829 36.0071 35.5965 36.0071 35.1875 35.9423C35.2526 35.3599 35.2711 34.7775 35.2526 34.2043Z" fill="white"/>
<path d="M34.1833 40.768C34.174 40.5276 34.3878 40.3057 34.7318 40.0654C35.8754 39.2981 36.74 38.9837 37.2886 39.5384C37.3908 39.6401 37.6326 39.8065 37.9394 39.788C39.1201 39.7048 40.7006 39.5662 42.2626 39.6309L42.3277 38.2442L43.0342 39.6863C43.7408 39.7511 44.4288 39.862 45.0517 40.0561L45.3771 38.7064L45.8327 40.3427C46.3255 40.5738 46.7438 40.8604 47.0878 41.2302C47.2087 41.3689 47.2924 41.3412 47.376 41.1748C47.5434 40.8327 47.8316 40.0561 47.5713 39.3443C46.6973 36.9961 38.6924 35.822 34.4529 39.9729C34.4808 39.8897 34.6574 39.4182 34.8155 39.1224C35.5872 37.6155 36.7121 36.6171 37.5396 37.1995C37.6604 37.2919 37.8929 37.3382 38.1625 37.218C39.1387 36.8205 40.3566 36.3028 41.6397 35.9052L41.4258 34.5278L42.3834 35.6926C43.1737 35.4892 43.9826 35.3413 44.7728 35.3043L44.6613 33.8991L45.591 35.3136C46.2976 35.3598 46.9763 35.5077 47.6085 35.8128C47.7665 35.896 47.8502 35.8405 47.8502 35.6556C47.8688 35.2304 47.813 34.2504 47.0971 33.631C44.9867 31.7636 37.7534 33.0209 34.7318 38.6139C34.3413 39.335 34.0903 40.4721 34.0903 40.4721C33.0862 39.8065 31.7567 38.9375 31.0501 39.5384C30.9386 39.6309 30.7061 39.8158 30.3993 39.788C29.2372 39.7048 27.6752 39.5754 26.1412 39.6309L26.0761 38.2534L25.3509 39.6771C24.6443 39.7326 23.947 39.8435 23.3148 40.0284L22.9987 38.7156L22.5525 40.3057C22.0318 40.5369 21.5763 40.8419 21.223 41.2302C21.1021 41.3596 21.0184 41.3412 20.9347 41.1748C20.7674 40.8327 20.4792 40.0469 20.7395 39.3443C21.5855 37.0608 28.5306 35.6001 33.923 40.0469C33.6162 39.2611 31.6637 36.7465 30.7154 37.3474C30.5946 37.4214 30.3621 37.4768 30.1018 37.3659C29.1256 36.9591 27.917 36.4414 26.6339 36.0439L26.8478 34.6664L25.8902 35.8313C25.8902 35.8313 24.7745 35.5077 23.5101 35.443L23.6216 34.0378L22.6919 35.443C21.976 35.4892 21.2973 35.6371 20.6651 35.9514C20.5071 36.0254 20.4234 35.9792 20.4234 35.8035C20.4048 35.3783 20.4606 34.3983 21.1765 33.7789C23.194 31.9854 30.92 33.557 34.0624 39.6863C34.0066 37.8189 33.0025 35.369 32.1658 35.6371C32.0263 35.6833 31.8404 35.6371 31.6637 35.4337C29.7485 33.3814 26.8199 30.3584 23.1754 30.1919C22.9987 30.1827 22.9429 30.1087 23.0266 29.9516C23.259 29.5356 23.8634 28.5741 25.0069 28.4262C27.9634 28.0009 32.7329 32.0501 34.1833 37.9668C34.9271 36.6078 34.6388 34.9807 33.8393 34.7404C33.6998 34.6942 33.5883 34.6387 33.5139 34.3891C33.142 33.1688 32.7515 31.856 32.1472 30.5617L33.2257 29.8684H31.8032C31.5057 29.3044 31.1524 28.7498 30.734 28.2136L31.766 27.3353L30.2134 27.5849C29.7206 27.0487 29.1535 26.531 28.4841 26.0503C28.3353 25.9486 28.3167 25.8561 28.4748 25.7729C28.9397 25.5233 30.1204 24.9964 31.3011 25.6158C32.4168 26.2074 33.4488 27.5202 34.1833 29.2305V19.6714C25.0906 19.6714 17.7272 26.3091 17.7272 34.5C17.7272 42.6817 25.0906 49.3287 34.1833 49.3287V40.768Z" fill="white"/>
<path d="M110.699 26.531H107.343V32.7157H101.058V26.531H97.7019V42.2933H101.058V35.4892H107.343V42.2933H110.699V26.531ZM95.1266 35.8497C94.8198 35.2858 94.3735 34.805 93.8064 34.389C93.2393 33.973 92.542 33.5847 91.7331 33.1964C90.7383 32.725 89.9945 32.3274 89.4925 32.0039C88.9904 31.6803 88.7394 31.2366 88.7394 30.6819C88.7394 30.2104 88.9067 29.8313 89.2507 29.5355C89.5947 29.2397 90.0782 29.0918 90.7197 29.0918C91.324 29.0918 91.9191 29.175 92.4955 29.3321C93.0719 29.4985 93.7227 29.7204 94.4479 30.0162L95.5357 27.4092C94.7082 27.0579 93.9179 26.7806 93.1835 26.5957C92.4397 26.4015 91.6587 26.3091 90.8313 26.3091C89.1764 26.3091 87.8655 26.7066 86.8986 27.4924C85.9316 28.2782 85.4575 29.3784 85.4575 30.7928C85.4575 31.5139 85.5876 32.1333 85.8387 32.651C86.0897 33.1687 86.4151 33.6032 86.8056 33.9638C87.1961 34.3243 87.6051 34.6294 88.0421 34.8698C88.4698 35.1101 88.8696 35.3228 89.2415 35.4984C89.8365 35.7757 90.3571 36.0346 90.822 36.2842C91.2775 36.5246 91.6494 36.7834 91.919 37.07C92.1887 37.3474 92.3281 37.6894 92.3281 38.0869C92.3281 38.5677 92.1515 38.9744 91.8075 39.2888C91.4635 39.6031 90.8685 39.7602 90.041 39.7602C89.2414 39.7602 88.4419 39.6216 87.633 39.3535C86.8242 39.0854 86.0432 38.7803 85.2901 38.4567V41.5722C86.6103 42.2101 88.1072 42.5244 89.7714 42.5244C91.6401 42.5244 93.0719 42.1084 94.0853 41.2764C95.0987 40.4444 95.61 39.3257 95.61 37.9298C95.5915 37.107 95.4334 36.4136 95.1266 35.8497ZM78.8936 33.5108L84.4255 26.531H80.6973L76.4113 31.8929L75.7419 32.8174C75.5187 33.1317 75.2956 33.4368 75.0725 33.7419V26.5217H71.7162V42.2841H75.0725V36.654L76.495 35.6371L80.6508 42.2841H84.472L78.8936 33.5108ZM61.0802 39.5384H59.6391V29.2674H61.4335C62.9024 29.2674 64.0181 29.6834 64.7898 30.5062C65.5614 31.329 65.9426 32.614 65.9426 34.3428C65.9426 37.8096 64.3156 39.5384 61.0802 39.5384ZM68.4157 30.0255C67.737 28.8791 66.798 28.0101 65.5707 27.4185C64.3528 26.8268 62.9117 26.5402 61.2475 26.5402H56.2735V42.3026H60.7548C63.4788 42.3026 65.6079 41.6277 67.1327 40.278C68.6574 38.9282 69.4198 36.9221 69.4198 34.2596C69.4291 32.5863 69.0851 31.1718 68.4157 30.0255Z" fill="white"/>
</svg>
